<?xml version="1.0" encoding="utf-8"?>
<!-- Generator: Adobe Illustrator 27.5.0, SVG Export Plug-In . SVG Version: 6.00 Build 0)  -->
<svg version="1.1" xmlns="http://www.w3.org/2000/svg" xmlns:xlink="http://www.w3.org/1999/xlink" x="0px" y="0px"
	 viewBox="0 0 800 800" style="enable-background:new 0 0 800 800;" xml:space="preserve">
<g id="background">
</g>
<g id="objects">
	<g>
		<g>
			<polygon style="fill:none;stroke:#F1F2F2;stroke-width:2;stroke-miterlimit:10;" points="17.096,61.584 -1.111,30.792 17.096,0 
				53.51,0 71.717,30.792 53.51,61.584 			"/>
			<polygon style="fill:none;stroke:#F1F2F2;stroke-width:2;stroke-miterlimit:10;" points="17.096,123.169 -1.111,92.377 
				17.096,61.584 53.51,61.584 71.717,92.377 53.51,123.169 			"/>
			<polygon style="fill:none;stroke:#F1F2F2;stroke-width:2;stroke-miterlimit:10;" points="17.096,184.752 -1.111,153.96 
				17.096,123.169 53.51,123.169 71.717,153.96 53.51,184.752 			"/>
			<polygon style="fill:none;stroke:#F1F2F2;stroke-width:2;stroke-miterlimit:10;" points="17.096,246.337 -1.111,215.544 
				17.096,184.752 53.51,184.752 71.717,215.544 53.51,246.337 			"/>
			<polygon style="fill:none;stroke:#F1F2F2;stroke-width:2;stroke-miterlimit:10;" points="17.096,307.921 -1.111,277.129 
				17.096,246.337 53.51,246.337 71.717,277.129 53.51,307.921 			"/>
			<polygon style="fill:none;stroke:#F1F2F2;stroke-width:2;stroke-miterlimit:10;" points="17.096,369.505 -1.111,338.713 
				17.096,307.921 53.51,307.921 71.717,338.713 53.51,369.505 			"/>
			<polygon style="fill:none;stroke:#F1F2F2;stroke-width:2;stroke-miterlimit:10;" points="17.096,431.089 -1.111,400.297 
				17.096,369.505 53.51,369.505 71.717,400.297 53.51,431.089 			"/>
			<polygon style="fill:none;stroke:#F1F2F2;stroke-width:2;stroke-miterlimit:10;" points="17.096,492.674 -1.111,461.881 
				17.096,431.089 53.51,431.089 71.717,461.881 53.51,492.674 			"/>
			<polygon style="fill:none;stroke:#F1F2F2;stroke-width:2;stroke-miterlimit:10;" points="17.096,554.258 -1.111,523.465 
				17.096,492.674 53.51,492.674 71.717,523.465 53.51,554.258 			"/>
			<polygon style="fill:none;stroke:#F1F2F2;stroke-width:2;stroke-miterlimit:10;" points="17.096,615.842 -1.111,585.049 
				17.096,554.258 53.51,554.258 71.717,585.049 53.51,615.842 			"/>
			<polygon style="fill:none;stroke:#F1F2F2;stroke-width:2;stroke-miterlimit:10;" points="17.096,677.426 -1.111,646.633 
				17.096,615.842 53.51,615.842 71.717,646.633 53.51,677.426 			"/>
			<polygon style="fill:none;stroke:#F1F2F2;stroke-width:2;stroke-miterlimit:10;" points="17.096,739.01 -1.111,708.218 
				17.096,677.426 53.51,677.426 71.717,708.218 53.51,739.01 			"/>
			<polygon style="fill:none;stroke:#F1F2F2;stroke-width:2;stroke-miterlimit:10;" points="17.096,800.594 -1.111,769.802 
				17.096,739.01 53.51,739.01 71.717,769.802 53.51,800.594 			"/>
		</g>
		<g>
			<polygon style="fill:none;stroke:#F1F2F2;stroke-width:2;stroke-miterlimit:10;" points="89.924,61.584 71.717,30.792 89.924,0 
				126.338,0 144.545,30.792 126.338,61.584 			"/>
			<polygon style="fill:none;stroke:#F1F2F2;stroke-width:2;stroke-miterlimit:10;" points="89.924,123.169 71.717,92.377 
				89.924,61.584 126.338,61.584 144.545,92.377 126.338,123.169 			"/>
			<polygon style="fill:none;stroke:#F1F2F2;stroke-width:2;stroke-miterlimit:10;" points="89.924,184.752 71.717,153.96 
				89.924,123.169 126.338,123.169 144.545,153.96 126.338,184.752 			"/>
			<polygon style="fill:none;stroke:#F1F2F2;stroke-width:2;stroke-miterlimit:10;" points="89.924,246.337 71.717,215.544 
				89.924,184.752 126.338,184.752 144.545,215.544 126.338,246.337 			"/>
			<polygon style="fill:none;stroke:#F1F2F2;stroke-width:2;stroke-miterlimit:10;" points="89.924,307.921 71.717,277.129 
				89.924,246.337 126.338,246.337 144.545,277.129 126.338,307.921 			"/>
			<polygon style="fill:none;stroke:#F1F2F2;stroke-width:2;stroke-miterlimit:10;" points="89.924,369.505 71.717,338.713 
				89.924,307.921 126.338,307.921 144.545,338.713 126.338,369.505 			"/>
			<polygon style="fill:none;stroke:#F1F2F2;stroke-width:2;stroke-miterlimit:10;" points="89.924,431.089 71.717,400.297 
				89.924,369.505 126.338,369.505 144.545,400.297 126.338,431.089 			"/>
			<polygon style="fill:none;stroke:#F1F2F2;stroke-width:2;stroke-miterlimit:10;" points="89.924,492.674 71.717,461.881 
				89.924,431.089 126.338,431.089 144.545,461.881 126.338,492.674 			"/>
			<polygon style="fill:none;stroke:#F1F2F2;stroke-width:2;stroke-miterlimit:10;" points="89.924,554.258 71.717,523.465 
				89.924,492.674 126.338,492.674 144.545,523.465 126.338,554.258 			"/>
			<polygon style="fill:none;stroke:#F1F2F2;stroke-width:2;stroke-miterlimit:10;" points="89.924,615.842 71.717,585.049 
				89.924,554.258 126.338,554.258 144.545,585.049 126.338,615.842 			"/>
			<polygon style="fill:none;stroke:#F1F2F2;stroke-width:2;stroke-miterlimit:10;" points="89.924,677.426 71.717,646.633 
				89.924,615.842 126.338,615.842 144.545,646.633 126.338,677.426 			"/>
			<polygon style="fill:none;stroke:#F1F2F2;stroke-width:2;stroke-miterlimit:10;" points="89.924,739.01 71.717,708.218 
				89.924,677.426 126.338,677.426 144.545,708.218 126.338,739.01 			"/>
			<polygon style="fill:none;stroke:#F1F2F2;stroke-width:2;stroke-miterlimit:10;" points="89.924,800.594 71.717,769.802 
				89.924,739.01 126.338,739.01 144.545,769.802 126.338,800.594 			"/>
		</g>
		<g>
			<polygon style="fill:none;stroke:#F1F2F2;stroke-width:2;stroke-miterlimit:10;" points="162.752,61.584 144.545,30.792 
				162.752,0 199.166,0 217.373,30.792 199.166,61.584 			"/>
			<polygon style="fill:none;stroke:#F1F2F2;stroke-width:2;stroke-miterlimit:10;" points="162.752,123.169 144.545,92.377 
				162.752,61.584 199.166,61.584 217.373,92.377 199.166,123.169 			"/>
			<polygon style="fill:none;stroke:#F1F2F2;stroke-width:2;stroke-miterlimit:10;" points="162.752,184.752 144.545,153.96 
				162.752,123.169 199.166,123.169 217.373,153.96 199.166,184.752 			"/>
			<polygon style="fill:none;stroke:#F1F2F2;stroke-width:2;stroke-miterlimit:10;" points="162.752,246.337 144.545,215.544 
				162.752,184.752 199.166,184.752 217.373,215.544 199.166,246.337 			"/>
			<polygon style="fill:none;stroke:#F1F2F2;stroke-width:2;stroke-miterlimit:10;" points="162.752,307.921 144.545,277.129 
				162.752,246.337 199.166,246.337 217.373,277.129 199.166,307.921 			"/>
			<polygon style="fill:none;stroke:#F1F2F2;stroke-width:2;stroke-miterlimit:10;" points="162.752,369.505 144.545,338.713 
				162.752,307.921 199.166,307.921 217.373,338.713 199.166,369.505 			"/>
			<polygon style="fill:none;stroke:#F1F2F2;stroke-width:2;stroke-miterlimit:10;" points="162.752,431.089 144.545,400.297 
				162.752,369.505 199.166,369.505 217.373,400.297 199.166,431.089 			"/>
			<polygon style="fill:none;stroke:#F1F2F2;stroke-width:2;stroke-miterlimit:10;" points="162.752,492.674 144.545,461.881 
				162.752,431.089 199.166,431.089 217.373,461.881 199.166,492.674 			"/>
			<polygon style="fill:none;stroke:#F1F2F2;stroke-width:2;stroke-miterlimit:10;" points="162.752,554.258 144.545,523.465 
				162.752,492.674 199.166,492.674 217.373,523.465 199.166,554.258 			"/>
			<polygon style="fill:none;stroke:#F1F2F2;stroke-width:2;stroke-miterlimit:10;" points="162.752,615.842 144.545,585.049 
				162.752,554.258 199.166,554.258 217.373,585.049 199.166,615.842 			"/>
			<polygon style="fill:none;stroke:#F1F2F2;stroke-width:2;stroke-miterlimit:10;" points="162.752,677.426 144.545,646.633 
				162.752,615.842 199.166,615.842 217.373,646.633 199.166,677.426 			"/>
			<polygon style="fill:none;stroke:#F1F2F2;stroke-width:2;stroke-miterlimit:10;" points="162.752,739.01 144.545,708.218 
				162.752,677.426 199.166,677.426 217.373,708.218 199.166,739.01 			"/>
			<polygon style="fill:none;stroke:#F1F2F2;stroke-width:2;stroke-miterlimit:10;" points="162.752,800.594 144.545,769.802 
				162.752,739.01 199.166,739.01 217.373,769.802 199.166,800.594 			"/>
		</g>
		<g>
			<polygon style="fill:none;stroke:#F1F2F2;stroke-width:2;stroke-miterlimit:10;" points="235.581,61.584 217.373,30.792 
				235.581,0 271.995,0 290.202,30.792 271.995,61.584 			"/>
			<polygon style="fill:none;stroke:#F1F2F2;stroke-width:2;stroke-miterlimit:10;" points="235.581,123.169 217.373,92.377 
				235.581,61.584 271.995,61.584 290.202,92.377 271.995,123.169 			"/>
			<polygon style="fill:none;stroke:#F1F2F2;stroke-width:2;stroke-miterlimit:10;" points="235.581,184.752 217.373,153.96 
				235.581,123.169 271.995,123.169 290.202,153.96 271.995,184.752 			"/>
			<polygon style="fill:none;stroke:#F1F2F2;stroke-width:2;stroke-miterlimit:10;" points="235.581,246.337 217.373,215.544 
				235.581,184.752 271.995,184.752 290.202,215.544 271.995,246.337 			"/>
			<polygon style="fill:none;stroke:#F1F2F2;stroke-width:2;stroke-miterlimit:10;" points="235.581,307.921 217.373,277.129 
				235.581,246.337 271.995,246.337 290.202,277.129 271.995,307.921 			"/>
			<polygon style="fill:none;stroke:#F1F2F2;stroke-width:2;stroke-miterlimit:10;" points="235.581,369.505 217.373,338.713 
				235.581,307.921 271.995,307.921 290.202,338.713 271.995,369.505 			"/>
			<polygon style="fill:none;stroke:#F1F2F2;stroke-width:2;stroke-miterlimit:10;" points="235.581,431.089 217.373,400.297 
				235.581,369.505 271.995,369.505 290.202,400.297 271.995,431.089 			"/>
			<polygon style="fill:none;stroke:#F1F2F2;stroke-width:2;stroke-miterlimit:10;" points="235.581,492.674 217.373,461.881 
				235.581,431.089 271.995,431.089 290.202,461.881 271.995,492.674 			"/>
			<polygon style="fill:none;stroke:#F1F2F2;stroke-width:2;stroke-miterlimit:10;" points="235.581,554.258 217.373,523.465 
				235.581,492.674 271.995,492.674 290.202,523.465 271.995,554.258 			"/>
			<polygon style="fill:none;stroke:#F1F2F2;stroke-width:2;stroke-miterlimit:10;" points="235.581,615.842 217.373,585.049 
				235.581,554.258 271.995,554.258 290.202,585.049 271.995,615.842 			"/>
			<polygon style="fill:none;stroke:#F1F2F2;stroke-width:2;stroke-miterlimit:10;" points="235.581,677.426 217.373,646.633 
				235.581,615.842 271.995,615.842 290.202,646.633 271.995,677.426 			"/>
			<polygon style="fill:none;stroke:#F1F2F2;stroke-width:2;stroke-miterlimit:10;" points="235.581,739.01 217.373,708.218 
				235.581,677.426 271.995,677.426 290.202,708.218 271.995,739.01 			"/>
			<polygon style="fill:none;stroke:#F1F2F2;stroke-width:2;stroke-miterlimit:10;" points="235.581,800.594 217.373,769.802 
				235.581,739.01 271.995,739.01 290.202,769.802 271.995,800.594 			"/>
		</g>
		<g>
			<polygon style="fill:none;stroke:#F1F2F2;stroke-width:2;stroke-miterlimit:10;" points="308.409,61.584 290.202,30.792 
				308.409,0 344.823,0 363.03,30.792 344.823,61.584 			"/>
			<polygon style="fill:none;stroke:#F1F2F2;stroke-width:2;stroke-miterlimit:10;" points="308.409,123.169 290.202,92.377 
				308.409,61.584 344.823,61.584 363.03,92.377 344.823,123.169 			"/>
			<polygon style="fill:none;stroke:#F1F2F2;stroke-width:2;stroke-miterlimit:10;" points="308.409,184.752 290.202,153.96 
				308.409,123.169 344.823,123.169 363.03,153.96 344.823,184.752 			"/>
			<polygon style="fill:none;stroke:#F1F2F2;stroke-width:2;stroke-miterlimit:10;" points="308.409,246.337 290.202,215.544 
				308.409,184.752 344.823,184.752 363.03,215.544 344.823,246.337 			"/>
			<polygon style="fill:none;stroke:#F1F2F2;stroke-width:2;stroke-miterlimit:10;" points="308.409,307.921 290.202,277.129 
				308.409,246.337 344.823,246.337 363.03,277.129 344.823,307.921 			"/>
			<polygon style="fill:none;stroke:#F1F2F2;stroke-width:2;stroke-miterlimit:10;" points="308.409,369.505 290.202,338.713 
				308.409,307.921 344.823,307.921 363.03,338.713 344.823,369.505 			"/>
			<polygon style="fill:none;stroke:#F1F2F2;stroke-width:2;stroke-miterlimit:10;" points="308.409,431.089 290.202,400.297 
				308.409,369.505 344.823,369.505 363.03,400.297 344.823,431.089 			"/>
			<polygon style="fill:none;stroke:#F1F2F2;stroke-width:2;stroke-miterlimit:10;" points="308.409,492.674 290.202,461.881 
				308.409,431.089 344.823,431.089 363.03,461.881 344.823,492.674 			"/>
			<polygon style="fill:none;stroke:#F1F2F2;stroke-width:2;stroke-miterlimit:10;" points="308.409,554.258 290.202,523.465 
				308.409,492.674 344.823,492.674 363.03,523.465 344.823,554.258 			"/>
			<polygon style="fill:none;stroke:#F1F2F2;stroke-width:2;stroke-miterlimit:10;" points="308.409,615.842 290.202,585.049 
				308.409,554.258 344.823,554.258 363.03,585.049 344.823,615.842 			"/>
			<polygon style="fill:none;stroke:#F1F2F2;stroke-width:2;stroke-miterlimit:10;" points="308.409,677.426 290.202,646.633 
				308.409,615.842 344.823,615.842 363.03,646.633 344.823,677.426 			"/>
			<polygon style="fill:none;stroke:#F1F2F2;stroke-width:2;stroke-miterlimit:10;" points="308.409,739.01 290.202,708.218 
				308.409,677.426 344.823,677.426 363.03,708.218 344.823,739.01 			"/>
			<polygon style="fill:none;stroke:#F1F2F2;stroke-width:2;stroke-miterlimit:10;" points="308.409,800.594 290.202,769.802 
				308.409,739.01 344.823,739.01 363.03,769.802 344.823,800.594 			"/>
		</g>
		<g>
			<polygon style="fill:none;stroke:#F1F2F2;stroke-width:2;stroke-miterlimit:10;" points="381.237,61.584 363.03,30.792 
				381.237,0 417.652,0 435.858,30.792 417.652,61.584 			"/>
			<polygon style="fill:none;stroke:#F1F2F2;stroke-width:2;stroke-miterlimit:10;" points="381.237,123.169 363.03,92.377 
				381.237,61.584 417.652,61.584 435.858,92.377 417.652,123.169 			"/>
			<polygon style="fill:none;stroke:#F1F2F2;stroke-width:2;stroke-miterlimit:10;" points="381.237,184.752 363.03,153.96 
				381.237,123.169 417.652,123.169 435.858,153.96 417.652,184.752 			"/>
			<polygon style="fill:none;stroke:#F1F2F2;stroke-width:2;stroke-miterlimit:10;" points="381.237,246.337 363.03,215.544 
				381.237,184.752 417.652,184.752 435.858,215.544 417.652,246.337 			"/>
			<polygon style="fill:none;stroke:#F1F2F2;stroke-width:2;stroke-miterlimit:10;" points="381.237,307.921 363.03,277.129 
				381.237,246.337 417.652,246.337 435.858,277.129 417.652,307.921 			"/>
			<polygon style="fill:none;stroke:#F1F2F2;stroke-width:2;stroke-miterlimit:10;" points="381.237,369.505 363.03,338.713 
				381.237,307.921 417.652,307.921 435.858,338.713 417.652,369.505 			"/>
			<polygon style="fill:none;stroke:#F1F2F2;stroke-width:2;stroke-miterlimit:10;" points="381.237,431.089 363.03,400.297 
				381.237,369.505 417.652,369.505 435.858,400.297 417.652,431.089 			"/>
			<polygon style="fill:none;stroke:#F1F2F2;stroke-width:2;stroke-miterlimit:10;" points="381.237,492.674 363.03,461.881 
				381.237,431.089 417.652,431.089 435.858,461.881 417.652,492.674 			"/>
			<polygon style="fill:none;stroke:#F1F2F2;stroke-width:2;stroke-miterlimit:10;" points="381.237,554.258 363.03,523.465 
				381.237,492.674 417.652,492.674 435.858,523.465 417.652,554.258 			"/>
			<polygon style="fill:none;stroke:#F1F2F2;stroke-width:2;stroke-miterlimit:10;" points="381.237,615.842 363.03,585.049 
				381.237,554.258 417.652,554.258 435.858,585.049 417.652,615.842 			"/>
			<polygon style="fill:none;stroke:#F1F2F2;stroke-width:2;stroke-miterlimit:10;" points="381.237,677.426 363.03,646.633 
				381.237,615.842 417.652,615.842 435.858,646.633 417.652,677.426 			"/>
			<polygon style="fill:none;stroke:#F1F2F2;stroke-width:2;stroke-miterlimit:10;" points="381.237,739.01 363.03,708.218 
				381.237,677.426 417.652,677.426 435.858,708.218 417.652,739.01 			"/>
			<polygon style="fill:none;stroke:#F1F2F2;stroke-width:2;stroke-miterlimit:10;" points="381.237,800.594 363.03,769.802 
				381.237,739.01 417.652,739.01 435.858,769.802 417.652,800.594 			"/>
		</g>
		<g>
			<polygon style="fill:none;stroke:#F1F2F2;stroke-width:2;stroke-miterlimit:10;" points="454.065,61.584 435.858,30.792 
				454.065,0 490.48,0 508.686,30.792 490.48,61.584 			"/>
			<polygon style="fill:none;stroke:#F1F2F2;stroke-width:2;stroke-miterlimit:10;" points="454.065,123.169 435.858,92.377 
				454.065,61.584 490.48,61.584 508.686,92.377 490.48,123.169 			"/>
			<polygon style="fill:none;stroke:#F1F2F2;stroke-width:2;stroke-miterlimit:10;" points="454.065,184.752 435.858,153.96 
				454.065,123.169 490.48,123.169 508.686,153.96 490.48,184.752 			"/>
			<polygon style="fill:none;stroke:#F1F2F2;stroke-width:2;stroke-miterlimit:10;" points="454.065,246.337 435.858,215.544 
				454.065,184.752 490.48,184.752 508.686,215.544 490.48,246.337 			"/>
			<polygon style="fill:none;stroke:#F1F2F2;stroke-width:2;stroke-miterlimit:10;" points="454.065,307.921 435.858,277.129 
				454.065,246.337 490.48,246.337 508.686,277.129 490.48,307.921 			"/>
			<polygon style="fill:none;stroke:#F1F2F2;stroke-width:2;stroke-miterlimit:10;" points="454.065,369.505 435.858,338.713 
				454.065,307.921 490.48,307.921 508.686,338.713 490.48,369.505 			"/>
			<polygon style="fill:none;stroke:#F1F2F2;stroke-width:2;stroke-miterlimit:10;" points="454.065,431.089 435.858,400.297 
				454.065,369.505 490.48,369.505 508.686,400.297 490.48,431.089 			"/>
			<polygon style="fill:none;stroke:#F1F2F2;stroke-width:2;stroke-miterlimit:10;" points="454.065,492.674 435.858,461.881 
				454.065,431.089 490.48,431.089 508.686,461.881 490.48,492.674 			"/>
			<polygon style="fill:none;stroke:#F1F2F2;stroke-width:2;stroke-miterlimit:10;" points="454.065,554.258 435.858,523.465 
				454.065,492.674 490.48,492.674 508.686,523.465 490.48,554.258 			"/>
			<polygon style="fill:none;stroke:#F1F2F2;stroke-width:2;stroke-miterlimit:10;" points="454.065,615.842 435.858,585.049 
				454.065,554.258 490.48,554.258 508.686,585.049 490.48,615.842 			"/>
			<polygon style="fill:none;stroke:#F1F2F2;stroke-width:2;stroke-miterlimit:10;" points="454.065,677.426 435.858,646.633 
				454.065,615.842 490.48,615.842 508.686,646.633 490.48,677.426 			"/>
			<polygon style="fill:none;stroke:#F1F2F2;stroke-width:2;stroke-miterlimit:10;" points="454.065,739.01 435.858,708.218 
				454.065,677.426 490.48,677.426 508.686,708.218 490.48,739.01 			"/>
			<polygon style="fill:none;stroke:#F1F2F2;stroke-width:2;stroke-miterlimit:10;" points="454.065,800.594 435.858,769.802 
				454.065,739.01 490.48,739.01 508.686,769.802 490.48,800.594 			"/>
		</g>
		<g>
			<polygon style="fill:none;stroke:#F1F2F2;stroke-width:2;stroke-miterlimit:10;" points="526.894,61.584 508.686,30.792 
				526.894,0 563.309,0 581.515,30.792 563.309,61.584 			"/>
			<polygon style="fill:none;stroke:#F1F2F2;stroke-width:2;stroke-miterlimit:10;" points="526.894,123.169 508.686,92.377 
				526.894,61.584 563.309,61.584 581.515,92.377 563.309,123.169 			"/>
			<polygon style="fill:none;stroke:#F1F2F2;stroke-width:2;stroke-miterlimit:10;" points="526.894,184.752 508.686,153.96 
				526.894,123.169 563.309,123.169 581.515,153.96 563.309,184.752 			"/>
			<polygon style="fill:none;stroke:#F1F2F2;stroke-width:2;stroke-miterlimit:10;" points="526.894,246.337 508.686,215.544 
				526.894,184.752 563.309,184.752 581.515,215.544 563.309,246.337 			"/>
			<polygon style="fill:none;stroke:#F1F2F2;stroke-width:2;stroke-miterlimit:10;" points="526.894,307.921 508.686,277.129 
				526.894,246.337 563.309,246.337 581.515,277.129 563.309,307.921 			"/>
			<polygon style="fill:none;stroke:#F1F2F2;stroke-width:2;stroke-miterlimit:10;" points="526.894,369.505 508.686,338.713 
				526.894,307.921 563.309,307.921 581.515,338.713 563.309,369.505 			"/>
			<polygon style="fill:none;stroke:#F1F2F2;stroke-width:2;stroke-miterlimit:10;" points="526.894,431.089 508.686,400.297 
				526.894,369.505 563.309,369.505 581.515,400.297 563.309,431.089 			"/>
			<polygon style="fill:none;stroke:#F1F2F2;stroke-width:2;stroke-miterlimit:10;" points="526.894,492.674 508.686,461.881 
				526.894,431.089 563.309,431.089 581.515,461.881 563.309,492.674 			"/>
			<polygon style="fill:none;stroke:#F1F2F2;stroke-width:2;stroke-miterlimit:10;" points="526.894,554.258 508.686,523.465 
				526.894,492.674 563.309,492.674 581.515,523.465 563.309,554.258 			"/>
			<polygon style="fill:none;stroke:#F1F2F2;stroke-width:2;stroke-miterlimit:10;" points="526.894,615.842 508.686,585.049 
				526.894,554.258 563.309,554.258 581.515,585.049 563.309,615.842 			"/>
			<polygon style="fill:none;stroke:#F1F2F2;stroke-width:2;stroke-miterlimit:10;" points="526.894,677.426 508.686,646.633 
				526.894,615.842 563.309,615.842 581.515,646.633 563.309,677.426 			"/>
			<polygon style="fill:none;stroke:#F1F2F2;stroke-width:2;stroke-miterlimit:10;" points="526.894,739.01 508.686,708.218 
				526.894,677.426 563.309,677.426 581.515,708.218 563.309,739.01 			"/>
			<polygon style="fill:none;stroke:#F1F2F2;stroke-width:2;stroke-miterlimit:10;" points="526.894,800.594 508.686,769.802 
				526.894,739.01 563.309,739.01 581.515,769.802 563.309,800.594 			"/>
		</g>
		<g>
			<polygon style="fill:none;stroke:#F1F2F2;stroke-width:2;stroke-miterlimit:10;" points="599.722,61.584 581.515,30.792 
				599.722,0 636.137,0 654.344,30.792 636.137,61.584 			"/>
			<polygon style="fill:none;stroke:#F1F2F2;stroke-width:2;stroke-miterlimit:10;" points="599.722,123.169 581.515,92.377 
				599.722,61.584 636.137,61.584 654.344,92.377 636.137,123.169 			"/>
			<polygon style="fill:none;stroke:#F1F2F2;stroke-width:2;stroke-miterlimit:10;" points="599.722,184.752 581.515,153.96 
				599.722,123.169 636.137,123.169 654.344,153.96 636.137,184.752 			"/>
			<polygon style="fill:none;stroke:#F1F2F2;stroke-width:2;stroke-miterlimit:10;" points="599.722,246.337 581.515,215.544 
				599.722,184.752 636.137,184.752 654.344,215.544 636.137,246.337 			"/>
			<polygon style="fill:none;stroke:#F1F2F2;stroke-width:2;stroke-miterlimit:10;" points="599.722,307.921 581.515,277.129 
				599.722,246.337 636.137,246.337 654.344,277.129 636.137,307.921 			"/>
			<polygon style="fill:none;stroke:#F1F2F2;stroke-width:2;stroke-miterlimit:10;" points="599.722,369.505 581.515,338.713 
				599.722,307.921 636.137,307.921 654.344,338.713 636.137,369.505 			"/>
			<polygon style="fill:none;stroke:#F1F2F2;stroke-width:2;stroke-miterlimit:10;" points="599.722,431.089 581.515,400.297 
				599.722,369.505 636.137,369.505 654.344,400.297 636.137,431.089 			"/>
			<polygon style="fill:none;stroke:#F1F2F2;stroke-width:2;stroke-miterlimit:10;" points="599.722,492.674 581.515,461.881 
				599.722,431.089 636.137,431.089 654.344,461.881 636.137,492.674 			"/>
			<polygon style="fill:none;stroke:#F1F2F2;stroke-width:2;stroke-miterlimit:10;" points="599.722,554.258 581.515,523.465 
				599.722,492.674 636.137,492.674 654.344,523.465 636.137,554.258 			"/>
			<polygon style="fill:none;stroke:#F1F2F2;stroke-width:2;stroke-miterlimit:10;" points="599.722,615.842 581.515,585.049 
				599.722,554.258 636.137,554.258 654.344,585.049 636.137,615.842 			"/>
			<polygon style="fill:none;stroke:#F1F2F2;stroke-width:2;stroke-miterlimit:10;" points="599.722,677.426 581.515,646.633 
				599.722,615.842 636.137,615.842 654.344,646.633 636.137,677.426 			"/>
			<polygon style="fill:none;stroke:#F1F2F2;stroke-width:2;stroke-miterlimit:10;" points="599.722,739.01 581.515,708.218 
				599.722,677.426 636.137,677.426 654.344,708.218 636.137,739.01 			"/>
			<polygon style="fill:none;stroke:#F1F2F2;stroke-width:2;stroke-miterlimit:10;" points="599.722,800.594 581.515,769.802 
				599.722,739.01 636.137,739.01 654.344,769.802 636.137,800.594 			"/>
		</g>
		<g>
			<polygon style="fill:none;stroke:#F1F2F2;stroke-width:2;stroke-miterlimit:10;" points="672.55,61.584 654.344,30.792 672.55,0 
				708.965,0 727.172,30.792 708.965,61.584 			"/>
			<polygon style="fill:none;stroke:#F1F2F2;stroke-width:2;stroke-miterlimit:10;" points="672.55,123.169 654.344,92.377 
				672.55,61.584 708.965,61.584 727.172,92.377 708.965,123.169 			"/>
			<polygon style="fill:none;stroke:#F1F2F2;stroke-width:2;stroke-miterlimit:10;" points="672.55,184.752 654.344,153.96 
				672.55,123.169 708.965,123.169 727.172,153.96 708.965,184.752 			"/>
			<polygon style="fill:none;stroke:#F1F2F2;stroke-width:2;stroke-miterlimit:10;" points="672.55,246.337 654.344,215.544 
				672.55,184.752 708.965,184.752 727.172,215.544 708.965,246.337 			"/>
			<polygon style="fill:none;stroke:#F1F2F2;stroke-width:2;stroke-miterlimit:10;" points="672.55,307.921 654.344,277.129 
				672.55,246.337 708.965,246.337 727.172,277.129 708.965,307.921 			"/>
			<polygon style="fill:none;stroke:#F1F2F2;stroke-width:2;stroke-miterlimit:10;" points="672.55,369.505 654.344,338.713 
				672.55,307.921 708.965,307.921 727.172,338.713 708.965,369.505 			"/>
			<polygon style="fill:none;stroke:#F1F2F2;stroke-width:2;stroke-miterlimit:10;" points="672.55,431.089 654.344,400.297 
				672.55,369.505 708.965,369.505 727.172,400.297 708.965,431.089 			"/>
			<polygon style="fill:none;stroke:#F1F2F2;stroke-width:2;stroke-miterlimit:10;" points="672.55,492.674 654.344,461.881 
				672.55,431.089 708.965,431.089 727.172,461.881 708.965,492.674 			"/>
			<polygon style="fill:none;stroke:#F1F2F2;stroke-width:2;stroke-miterlimit:10;" points="672.55,554.258 654.344,523.465 
				672.55,492.674 708.965,492.674 727.172,523.465 708.965,554.258 			"/>
			<polygon style="fill:none;stroke:#F1F2F2;stroke-width:2;stroke-miterlimit:10;" points="672.55,615.842 654.344,585.049 
				672.55,554.258 708.965,554.258 727.172,585.049 708.965,615.842 			"/>
			<polygon style="fill:none;stroke:#F1F2F2;stroke-width:2;stroke-miterlimit:10;" points="672.55,677.426 654.344,646.633 
				672.55,615.842 708.965,615.842 727.172,646.633 708.965,677.426 			"/>
			<polygon style="fill:none;stroke:#F1F2F2;stroke-width:2;stroke-miterlimit:10;" points="672.55,739.01 654.344,708.218 
				672.55,677.426 708.965,677.426 727.172,708.218 708.965,739.01 			"/>
			<polygon style="fill:none;stroke:#F1F2F2;stroke-width:2;stroke-miterlimit:10;" points="672.55,800.594 654.344,769.802 
				672.55,739.01 708.965,739.01 727.172,769.802 708.965,800.594 			"/>
		</g>
		<g>
			<polygon style="fill:none;stroke:#F1F2F2;stroke-width:2;stroke-miterlimit:10;" points="745.378,61.584 727.172,30.792 
				745.378,0 781.793,0 800,30.792 781.793,61.584 			"/>
			<polygon style="fill:none;stroke:#F1F2F2;stroke-width:2;stroke-miterlimit:10;" points="745.378,123.169 727.172,92.377 
				745.378,61.584 781.793,61.584 800,92.377 781.793,123.169 			"/>
			<polygon style="fill:none;stroke:#F1F2F2;stroke-width:2;stroke-miterlimit:10;" points="745.378,184.752 727.172,153.96 
				745.378,123.169 781.793,123.169 800,153.96 781.793,184.752 			"/>
			<polygon style="fill:none;stroke:#F1F2F2;stroke-width:2;stroke-miterlimit:10;" points="745.378,246.337 727.172,215.544 
				745.378,184.752 781.793,184.752 800,215.544 781.793,246.337 			"/>
			<polygon style="fill:none;stroke:#F1F2F2;stroke-width:2;stroke-miterlimit:10;" points="745.378,307.921 727.172,277.129 
				745.378,246.337 781.793,246.337 800,277.129 781.793,307.921 			"/>
			<polygon style="fill:none;stroke:#F1F2F2;stroke-width:2;stroke-miterlimit:10;" points="745.378,369.505 727.172,338.713 
				745.378,307.921 781.793,307.921 800,338.713 781.793,369.505 			"/>
			<polygon style="fill:none;stroke:#F1F2F2;stroke-width:2;stroke-miterlimit:10;" points="745.378,431.089 727.172,400.297 
				745.378,369.505 781.793,369.505 800,400.297 781.793,431.089 			"/>
			<polygon style="fill:none;stroke:#F1F2F2;stroke-width:2;stroke-miterlimit:10;" points="745.378,492.674 727.172,461.881 
				745.378,431.089 781.793,431.089 800,461.881 781.793,492.674 			"/>
			<polygon style="fill:none;stroke:#F1F2F2;stroke-width:2;stroke-miterlimit:10;" points="745.378,554.258 727.172,523.465 
				745.378,492.674 781.793,492.674 800,523.465 781.793,554.258 			"/>
			<polygon style="fill:none;stroke:#F1F2F2;stroke-width:2;stroke-miterlimit:10;" points="745.378,615.842 727.172,585.049 
				745.378,554.258 781.793,554.258 800,585.049 781.793,615.842 			"/>
			<polygon style="fill:none;stroke:#F1F2F2;stroke-width:2;stroke-miterlimit:10;" points="745.378,677.426 727.172,646.633 
				745.378,615.842 781.793,615.842 800,646.633 781.793,677.426 			"/>
			<polygon style="fill:none;stroke:#F1F2F2;stroke-width:2;stroke-miterlimit:10;" points="745.378,739.01 727.172,708.218 
				745.378,677.426 781.793,677.426 800,708.218 781.793,739.01 			"/>
			<polygon style="fill:none;stroke:#F1F2F2;stroke-width:2;stroke-miterlimit:10;" points="745.378,800.594 727.172,769.802 
				745.378,739.01 781.793,739.01 800,769.802 781.793,800.594 			"/>
		</g>
	</g>
	<path style="fill:#B8B8B8;" d="M253.788,481.448c0,11.776-9.545,21.321-21.321,21.321H80.262c-11.775,0-21.321-9.545-21.321-21.321
		V329.243c0-11.775,9.546-21.321,21.321-21.321h152.205c11.776,0,21.321,9.546,21.321,21.321V481.448z"/>
	<path style="fill:#B8B8B8;" d="M751.768,481.448c0,11.776-9.545,21.321-21.322,21.321H578.241
		c-11.775,0-21.321-9.545-21.321-21.321V329.243c0-11.775,9.546-21.321,21.321-21.321h152.204c11.777,0,21.322,9.546,21.322,21.321
		V481.448z"/>
	<path style="fill:#F1F2F2;" d="M747.924,476.103c0,11.776-9.547,21.321-21.322,21.321H574.396
		c-11.774,0-21.321-9.545-21.321-21.321V323.897c0-11.776,9.547-21.321,21.321-21.321h152.205c11.775,0,21.322,9.545,21.322,21.321
		V476.103z"/>
	<circle style="fill:#B8B8B8;" cx="399.444" cy="405.346" r="97.425"/>
	<radialGradient id="SVGID_1_" cx="335.9077" cy="466.8425" r="192.9176" gradientUnits="userSpaceOnUse">
		<stop  offset="0" style="stop-color:#FEC053"/>
		<stop  offset="0.3273" style="stop-color:#F2203E"/>
		<stop  offset="0.6485" style="stop-color:#B729A8"/>
		<stop  offset="1" style="stop-color:#5342D6"/>
	</radialGradient>
	<circle style="fill:url(#SVGID_1_);" cx="395.791" cy="400" r="97.425"/>
	
		<radialGradient id="SVGID_00000047762602819575047450000005937229360662191535_" cx="66.616" cy="486.8406" r="247.7585" gradientUnits="userSpaceOnUse">
		<stop  offset="0" style="stop-color:#FEC053"/>
		<stop  offset="0.3273" style="stop-color:#F2203E"/>
		<stop  offset="0.6485" style="stop-color:#B729A8"/>
		<stop  offset="1" style="stop-color:#5342D6"/>
	</radialGradient>
	<path style="fill:url(#SVGID_00000047762602819575047450000005937229360662191535_);" d="M247.923,476.103
		c0,11.776-9.545,21.321-21.321,21.321H74.397c-11.775,0-21.321-9.545-21.321-21.321V323.897c0-11.775,9.546-21.321,21.321-21.321
		h152.205c11.776,0,21.321,9.546,21.321,21.321V476.103z"/>
	<g>
		<path style="fill:#F1F2F2;" d="M189.671,468.487h-78.343c-16.165,0-29.316-13.152-29.316-29.317v-78.341
			c0-16.166,13.151-29.317,29.316-29.317h78.343c16.164,0,29.317,13.151,29.317,29.317v78.341
			C218.988,455.335,205.836,468.487,189.671,468.487z M111.328,347.502c-7.348,0-13.326,5.979-13.326,13.327v78.341
			c0,7.349,5.978,13.326,13.326,13.326h78.343c7.348,0,13.326-5.978,13.326-13.326v-78.341c0-7.348-5.978-13.327-13.326-13.327
			H111.328z"/>
	</g>
	<g>
		<path style="fill:#F1F2F2;" d="M150.499,437.838c-20.864,0-37.838-16.975-37.838-37.838s16.974-37.838,37.838-37.838
			c20.865,0,37.839,16.975,37.839,37.838S171.364,437.838,150.499,437.838z M150.499,378.153c-12.046,0-21.847,9.8-21.847,21.847
			c0,12.047,9.801,21.847,21.847,21.847c12.048,0,21.849-9.8,21.849-21.847C172.348,387.953,162.547,378.153,150.499,378.153z"/>
	</g>
	<path style="fill:#F1F2F2;" d="M196.039,363.345c0,3.762-3.05,6.812-6.812,6.812c-3.762,0-6.812-3.05-6.812-6.812
		c0-3.762,3.05-6.811,6.812-6.811C192.989,356.534,196.039,359.583,196.039,363.345z"/>
	<g>
		<path style="fill:#F1F2F2;" d="M434.963,468.487H356.62c-16.165,0-29.316-13.152-29.316-29.317v-78.341
			c0-16.166,13.151-29.317,29.316-29.317h78.343c16.165,0,29.316,13.151,29.316,29.317v78.341
			C464.279,455.335,451.128,468.487,434.963,468.487z M356.62,347.502c-7.349,0-13.326,5.979-13.326,13.327v78.341
			c0,7.349,5.978,13.326,13.326,13.326h78.343c7.349,0,13.326-5.978,13.326-13.326v-78.341c0-7.348-5.978-13.327-13.326-13.327
			H356.62z"/>
	</g>
	<g>
		<path style="fill:#F1F2F2;" d="M395.791,437.838c-20.864,0-37.838-16.975-37.838-37.838s16.974-37.838,37.838-37.838
			c20.864,0,37.84,16.975,37.84,37.838S416.655,437.838,395.791,437.838z M395.791,378.153c-12.047,0-21.848,9.8-21.848,21.847
			c0,12.047,9.801,21.847,21.848,21.847c12.048,0,21.849-9.8,21.849-21.847C417.64,387.953,407.839,378.153,395.791,378.153z"/>
	</g>
	<path style="fill:#F1F2F2;" d="M441.331,363.345c0,3.762-3.051,6.812-6.813,6.812c-3.762,0-6.812-3.05-6.812-6.812
		c0-3.762,3.05-6.811,6.812-6.811C438.28,356.534,441.331,359.583,441.331,363.345z"/>
	<g>
		
			<radialGradient id="SVGID_00000041974310051065122910000003845464998418392476_" cx="595.3322" cy="472.259" r="181.5989" gradientUnits="userSpaceOnUse">
			<stop  offset="0" style="stop-color:#FEC053"/>
			<stop  offset="0.3273" style="stop-color:#F2203E"/>
			<stop  offset="0.6485" style="stop-color:#B729A8"/>
			<stop  offset="1" style="stop-color:#5342D6"/>
		</radialGradient>
		<path style="fill:url(#SVGID_00000041974310051065122910000003845464998418392476_);" d="M689.672,468.487h-78.345
			c-16.167,0-29.317-13.152-29.317-29.316v-78.342c0-16.166,13.15-29.316,29.317-29.316h78.345c16.166,0,29.316,13.15,29.316,29.316
			v78.342C718.988,455.335,705.838,468.487,689.672,468.487z M611.327,347.504c-7.349,0-13.326,5.978-13.326,13.325v78.342
			c0,7.348,5.977,13.325,13.326,13.325h78.345c7.348,0,13.325-5.978,13.325-13.325v-78.342c0-7.348-5.978-13.325-13.325-13.325
			H611.327z"/>
	</g>
	<g>
		
			<radialGradient id="SVGID_00000019672355996262308640000007128019443578783637_" cx="595.3333" cy="472.2593" r="181.597" gradientUnits="userSpaceOnUse">
			<stop  offset="0" style="stop-color:#FEC053"/>
			<stop  offset="0.3273" style="stop-color:#F2203E"/>
			<stop  offset="0.6485" style="stop-color:#B729A8"/>
			<stop  offset="1" style="stop-color:#5342D6"/>
		</radialGradient>
		<path style="fill:url(#SVGID_00000019672355996262308640000007128019443578783637_);" d="M650.499,437.838
			c-20.864,0-37.839-16.975-37.839-37.838s16.975-37.838,37.839-37.838c20.865,0,37.84,16.975,37.84,37.838
			S671.364,437.838,650.499,437.838z M650.499,378.153c-12.047,0-21.849,9.8-21.849,21.847s9.802,21.847,21.849,21.847
			c12.048,0,21.849-9.8,21.849-21.847S662.547,378.153,650.499,378.153z"/>
	</g>
	<g>
		
			<radialGradient id="SVGID_00000151538951494912358820000013775441697355625872_" cx="595.3333" cy="472.2643" r="181.602" gradientUnits="userSpaceOnUse">
			<stop  offset="0" style="stop-color:#FEC053"/>
			<stop  offset="0.3273" style="stop-color:#F2203E"/>
			<stop  offset="0.6485" style="stop-color:#B729A8"/>
			<stop  offset="1" style="stop-color:#5342D6"/>
		</radialGradient>
		<path style="fill:url(#SVGID_00000151538951494912358820000013775441697355625872_);" d="M696.039,363.346
			c0,3.762-3.05,6.811-6.812,6.811c-3.762,0-6.813-3.05-6.813-6.811s3.051-6.813,6.813-6.813
			C692.989,356.533,696.039,359.584,696.039,363.346z"/>
	</g>
</g>
</svg>
